<svg xmlns="http://www.w3.org/2000/svg" width="657" height="244" viewBox="0 0 657 244"><path fill="#fff" d="M41.039 243.507h-40.503v-226.232l40.503-14.635zM.536 17.275l40.503-16.782 202.512 202.512-18.955 38.135zM29.176 243.507l-14.08-40.502h228.455l-16.876 40.502zM29.176 243.507l-16.686-40.502 159.884-159.975 28.639 28.64z"/><g fill="#fff"><path d="M276.533 122.883v-48.93h10.921v39.199h20.859v9.73h-31.78zM352.47 122.883l-4.55-10.57h-20.51l-4.551 10.57h-11.619l21.14-48.93h10.57l21.14 48.93h-11.62zm-14.77-34.37l-6.16 14.21h12.25l-6.09-14.21zM384.229 83.402v39.48h-10.92v-39.48h-13.86v-9.449h38.64v9.449h-13.86zM439.204 73.953v9.729h-24.359v10.08h21.909v9.311h-21.909v10.149h25.13v9.66h-36.051v-48.93h35.28zM488.624 90.192c0 7.841-3.104 12.904-9.31 15.19l12.39 17.5h-13.44l-10.85-15.61h-7.56v15.61h-10.921v-48.93h18.551c7.605 0 13.03 1.284 16.274 3.85 3.244 2.568 4.866 6.698 4.866 12.39zm-13.16 5.811c1.354-1.213 2.03-3.138 2.03-5.775 0-2.636-.7-4.444-2.1-5.425-1.4-.979-3.851-1.47-7.351-1.47h-8.189v14.49h7.979c3.734 0 6.277-.606 7.631-1.82zM535.922 122.883l-4.55-10.57h-20.51l-4.551 10.57h-11.619l21.14-48.93h10.57l21.14 48.93h-11.62zm-14.77-34.37l-6.16 14.21h12.25l-6.09-14.21zM552.336 122.883v-48.93h10.921v39.199h20.859v9.73h-31.78zM297.254 143.402v39.48h-10.92v-39.48h-13.86v-9.449h38.64v9.449h-13.86zM347.331 133.953h10.92v48.93h-10.92v-19.25h-19.46v19.25h-10.921v-48.93h10.921v20.439h19.46v-20.439zM410.315 176.128c-4.946 4.83-11.037 7.245-18.27 7.245-7.234 0-13.324-2.415-18.271-7.245s-7.42-10.838-7.42-18.025c0-7.186 2.474-13.194 7.42-18.024s11.036-7.245 18.271-7.245c7.232 0 13.323 2.415 18.27 7.245s7.42 10.839 7.42 18.024c0 7.187-2.473 13.195-7.42 18.025zm-3.71-17.99c0-4.363-1.399-8.085-4.2-11.165-2.8-3.08-6.241-4.62-10.324-4.62-4.084 0-7.525 1.54-10.325 4.62s-4.2 6.802-4.2 11.165c0 4.364 1.4 8.074 4.2 11.13 2.8 3.058 6.241 4.585 10.325 4.585 4.083 0 7.524-1.527 10.324-4.585 2.801-3.056 4.2-6.766 4.2-11.13zM438.497 170.248c1.82 2.264 4.271 3.395 7.351 3.395s5.518-1.131 7.314-3.395c1.796-2.264 2.695-5.355 2.695-9.275v-27.02h10.92v27.37c0 7.094-1.96 12.542-5.88 16.345-3.92 3.804-8.938 5.705-15.05 5.705-6.114 0-11.143-1.913-15.085-5.74-3.944-3.826-5.915-9.263-5.915-16.31v-27.37h10.92v27.02c.001 3.92.911 7.011 2.73 9.275zM508.608 157.963h10.99v17.36c-4.854 5.414-11.574 8.119-20.16 8.119-7.187 0-13.219-2.38-18.095-7.14-4.877-4.76-7.315-10.768-7.315-18.025 0-7.256 2.485-13.311 7.455-18.164s10.966-7.28 17.99-7.28c7.022 0 13.125 2.31 18.305 6.93l-5.67 8.19c-2.194-1.913-4.212-3.231-6.055-3.955-1.844-.724-3.839-1.085-5.985-1.085-4.154 0-7.654 1.412-10.5 4.234-2.847 2.824-4.27 6.545-4.27 11.165s1.365 8.319 4.095 11.096c2.73 2.776 5.985 4.165 9.765 4.165 3.78 0 6.931-.724 9.45-2.171v-13.439zM558.933 133.953h10.92v48.93h-10.92v-19.25h-19.46v19.25h-10.921v-48.93h10.921v20.439h19.46v-20.439zM600.47 143.402v39.48h-10.92v-39.48h-13.86v-9.449h38.64v9.449h-13.86zM632.27 143.718c-1.05.864-1.575 2.007-1.575 3.43 0 1.425.642 2.556 1.926 3.396 1.282.84 4.245 1.832 8.89 2.975 4.643 1.145 8.248 2.859 10.814 5.146 2.566 2.287 3.851 5.624 3.851 10.01 0 4.387-1.646 7.945-4.936 10.675-3.29 2.73-7.618 4.095-12.984 4.095-7.747 0-14.725-2.869-20.931-8.609l6.511-7.98c5.272 4.62 10.149 6.931 14.63 6.931 2.006 0 3.581-.432 4.725-1.295s1.715-2.03 1.715-3.5c0-1.471-.606-2.637-1.819-3.5-1.214-.863-3.617-1.738-7.21-2.625-5.694-1.354-9.859-3.115-12.495-5.285-2.638-2.17-3.955-5.576-3.955-10.221 0-4.643 1.668-8.225 5.005-10.744 3.336-2.521 7.501-3.78 12.495-3.78 3.266 0 6.533.56 9.8 1.68 3.266 1.12 6.113 2.707 8.54 4.76l-5.53 7.98c-4.247-3.22-8.634-4.83-13.16-4.83-1.822-.004-3.258.427-4.307 1.291z"/></g></svg>