<svg xmlns="http://www.w3.org/2000/svg" width="265" height="98" viewBox="0 0 265 98"><linearGradient id="a" gradientUnits="userSpaceOnUse" x1="8.933" y1="17.975" x2="8.933" y2="85.473"><stop offset="0" stop-color="#3A0D28"/><stop offset=".16" stop-color="#72214E"/><stop offset=".804" stop-color="#72214E"/><stop offset="1" stop-color="#3A0D28"/></linearGradient><path fill="url(#a)" d="M16.993 97.359h-16.12v-90.04l16.12-5.664z"/><linearGradient id="b" gradientUnits="userSpaceOnUse" x1="15.364" y1="10.452" x2="88.236" y2="83.324"><stop offset=".117" stop-color="#C00046"/><stop offset=".242" stop-color="#BE0045"/><stop offset=".287" stop-color="#B70043"/><stop offset=".319" stop-color="#AC003F"/><stop offset=".345" stop-color="#9B003A"/><stop offset=".367" stop-color="#850033"/><stop offset=".387" stop-color="#6A002A"/><stop offset=".393" stop-color="#600027"/><stop offset=".571" stop-color="#600027"/><stop offset=".583" stop-color="#77002E"/><stop offset=".602" stop-color="#910037"/><stop offset=".623" stop-color="#A6003E"/><stop offset=".646" stop-color="#B50042"/><stop offset=".674" stop-color="#BD0045"/><stop offset=".718" stop-color="#C00046"/><stop offset=".767" stop-color="#BA0044"/><stop offset=".831" stop-color="#AA003F"/><stop offset=".903" stop-color="#8F0036"/><stop offset=".981" stop-color="#6A002A"/><stop offset="1" stop-color="#600027"/></linearGradient><path fill="url(#b)" d="M.873 7.319l16.12-6.679 80.601 80.599-8.142 14.742z"/><linearGradient id="c" gradientUnits="userSpaceOnUse" x1="39.389" y1="89.3" x2="17.829" y2="89.3"><stop offset="0" stop-color="#E3342D"/><stop offset=".315" stop-color="#C32B27"/><stop offset=".767" stop-color="#9A201F"/><stop offset="1" stop-color="#8A1C1C"/></linearGradient><path fill="url(#c)" d="M12.271 97.359l-4.409-16.12h89.732l-6.717 16.12z"/><path fill="#F46A27" d="M12.271 97.359l-6.64-16.12 63.634-63.67 11.398 11.4z"/><g fill="#7C8988"><path d="M110.72 49.35v-19.475h4.347v15.603h8.302v3.872h-12.649zM141.245 49.35l-1.812-4.207h-8.163l-1.811 4.207h-4.625l8.414-19.475h4.207l8.413 19.475h-4.623zm-5.879-13.68l-2.451 5.656h4.875l-2.424-5.656zM154.379 33.637v15.713h-4.347v-15.713h-5.516v-3.762h15.379v3.762h-5.516zM176.651 29.875v3.873h-9.695v4.012h8.72v3.705h-8.72v4.04h10.002v3.845h-14.349v-19.475h14.042zM196.67 36.339c0 3.12-1.235 5.136-3.705 6.046l4.931 6.965h-5.349l-4.318-6.213h-3.009v6.213h-4.347v-19.475h7.384c3.026 0 5.186.512 6.477 1.533s1.936 2.666 1.936 4.931zm-5.237 2.313c.538-.482.808-1.249.808-2.299 0-1.049-.278-1.769-.836-2.159-.557-.39-1.532-.585-2.925-.585h-3.26v5.768h3.176c1.486-.001 2.498-.242 3.037-.725zM215.796 49.35l-1.812-4.207h-8.163l-1.811 4.207h-4.625l8.414-19.475h4.207l8.413 19.475h-4.623zm-5.879-13.68l-2.451 5.656h4.875l-2.424-5.656zM222.685 49.35v-19.475h4.347v15.603h8.302v3.872h-12.649zM118.967 57.517v15.713h-4.347v-15.713h-5.516v-3.762h15.379v3.762h-5.516zM139.288 53.755h4.346v19.475h-4.346v-7.662h-7.745v7.662h-4.347v-19.475h4.347v8.135h7.745v-8.135zM164.715 70.541c-1.969 1.922-4.393 2.885-7.271 2.885s-5.303-.963-7.271-2.885-2.953-4.313-2.953-7.174c0-2.859.984-5.252 2.953-7.173 1.969-1.923 4.393-2.884 7.271-2.884s5.303.961 7.271 2.884c1.969 1.921 2.953 4.314 2.953 7.173 0 2.862-.984 5.252-2.953 7.174zm-1.476-7.16c0-1.736-.557-3.217-1.671-4.443-1.115-1.225-2.484-1.838-4.109-1.838-1.626 0-2.995.613-4.109 1.838-1.115 1.227-1.672 2.707-1.672 4.443 0 1.738.557 3.215 1.672 4.43 1.114 1.217 2.483 1.826 4.109 1.826 1.625 0 2.994-.609 4.109-1.826 1.114-1.215 1.671-2.692 1.671-4.43zM176.302 68.201c.725.9 1.7 1.352 2.926 1.352s2.196-.451 2.911-1.352 1.072-2.131 1.072-3.691v-10.755h4.347v10.893c0 2.824-.78 4.992-2.341 6.506-1.56 1.514-3.557 2.271-5.989 2.271-2.434 0-4.435-.762-6.004-2.285-1.57-1.523-2.354-3.688-2.354-6.492v-10.893h4.347v10.755c-.001 1.56.362 2.791 1.085 3.691zM204.574 63.313h4.374v6.908c-1.932 2.154-4.606 3.232-8.023 3.232-2.86 0-5.261-.947-7.201-2.842-1.941-1.895-2.912-4.285-2.912-7.174s.989-5.299 2.968-7.23c1.978-1.932 4.364-2.897 7.159-2.897 2.796 0 5.225.919 7.286 2.758l-2.257 3.26c-.873-.762-1.677-1.287-2.41-1.575-.733-.287-1.527-.432-2.382-.432-1.653 0-3.046.563-4.179 1.686-1.134 1.123-1.7 2.605-1.7 4.443s.544 3.311 1.63 4.416c1.087 1.105 2.383 1.658 3.887 1.658 1.505 0 2.758-.289 3.761-.865v-5.346zM224.957 53.755h4.346v19.475h-4.346v-7.662h-7.745v7.662h-4.347v-19.475h4.347v8.135h7.745v-8.135zM241.878 57.517v15.713h-4.347v-15.713h-5.516v-3.762h15.379v3.762h-5.516zM254.906 57.642c-.418.344-.627.799-.627 1.366s.255 1.016.767 1.352c.51.334 1.689.729 3.538 1.184 1.848.455 3.282 1.137 4.304 2.047s1.532 2.238 1.532 3.984-.654 3.162-1.964 4.248c-1.31 1.088-3.032 1.631-5.168 1.631-3.083 0-5.86-1.143-8.33-3.428l2.591-3.176c2.099 1.84 4.04 2.758 5.823 2.758.798 0 1.425-.17 1.88-.516.455-.342.683-.807.683-1.393 0-.584-.241-1.049-.724-1.393-.483-.344-1.44-.691-2.87-1.045-2.267-.539-3.924-1.24-4.973-2.104-1.05-.863-1.574-2.219-1.574-4.066 0-1.849.664-3.274 1.992-4.277 1.327-1.003 2.985-1.505 4.973-1.505 1.3 0 2.601.223 3.9.669 1.3.445 2.433 1.077 3.399 1.895l-2.201 3.175c-1.69-1.281-3.437-1.922-5.238-1.922-.724 0-1.295.173-1.713.516z"/></g></svg>